# MagicaVoxel @ Ephtracy

# group
o 

# material
mtllib vedro.mtl
usemtl palette

# normals
vn -1 0 0
vn 1 0 0
vn 0 0 1
vn 0 0 -1
vn 0 -1 0
vn 0 1 0

# texcoords
vt 0.958984 0.5
vt 0.962891 0.5
vt 0.974609 0.5
vt 0.978516 0.5
vt 0.990234 0.5
vt 0.994141 0.5

# verts
v 1.2 2 -1.6
v 1.2 2 -2.2
v 1.2 2.1 -1.6
v 1.2 2.1 -2.2
v 1.2 3.9 -1.6
v 1.2 3.9 -2.2
v 1.2 4 -1.6
v 1.2 4 -2.2
v 1.2 4.1 -1.6
v 1.2 4.1 -2.2
v 1.3 2 -1.4
v 1.3 2 -1.6
v 1.3 2 -2.2
v 1.3 2 -2.4
v 1.3 2.1 -1.4
v 1.3 2.1 -1.6
v 1.3 2.1 -2.2
v 1.3 2.1 -2.4
v 1.3 3.9 -1.4
v 1.3 3.9 -1.6
v 1.3 3.9 -2.2
v 1.3 3.9 -2.4
v 1.3 4 -1.4
v 1.3 4 -1.6
v 1.3 4 -2.2
v 1.3 4 -2.4
v 1.3 4.1 -1.4
v 1.3 4.1 -1.6
v 1.3 4.1 -2.2
v 1.3 4.1 -2.4
v 1.4 2 -1.3
v 1.4 2 -1.4
v 1.4 2 -2.4
v 1.4 2 -2.5
v 1.4 2.1 -1.3
v 1.4 2.1 -1.4
v 1.4 2.1 -2.4
v 1.4 2.1 -2.5
v 1.4 3.9 -1.3
v 1.4 3.9 -1.4
v 1.4 3.9 -2.4
v 1.4 3.9 -2.5
v 1.4 4 -1.3
v 1.4 4 -1.4
v 1.4 4 -2.4
v 1.4 4 -2.5
v 1.4 4.1 -1.3
v 1.4 4.1 -1.4
v 1.4 4.1 -2.4
v 1.4 4.1 -2.5
v 1.6 2 -1.2
v 1.6 2 -1.3
v 1.6 2 -2.5
v 1.6 2 -2.6
v 1.6 2.1 -1.2
v 1.6 2.1 -1.3
v 1.6 2.1 -2.5
v 1.6 2.1 -2.6
v 1.6 3.9 -1.2
v 1.6 3.9 -1.3
v 1.6 3.9 -2.5
v 1.6 3.9 -2.6
v 1.6 4 -1.2
v 1.6 4 -1.3
v 1.6 4 -2.5
v 1.6 4 -2.6
v 1.6 4.1 -1.2
v 1.6 4.1 -1.3
v 1.6 4.1 -2.5
v 1.6 4.1 -2.6
v 1.8 2 -1.1
v 1.8 2 -1.2
v 1.8 2 -2.6
v 1.8 2 -2.7
v 1.8 2.1 -1.1
v 1.8 2.1 -1.2
v 1.8 2.1 -2.6
v 1.8 2.1 -2.7
v 1.8 3.7 -1
v 1.8 3.7 -1.1
v 1.8 3.8 -1
v 1.8 3.8 -1.1
v 1.8 3.9 -1
v 1.8 3.9 -1.1
v 1.8 3.9 -1.2
v 1.8 3.9 -2.6
v 1.8 3.9 -2.7
v 1.8 4 -1
v 1.8 4 -1.1
v 1.8 4 -1.2
v 1.8 4 -2.6
v 1.8 4 -2.7
v 1.8 4.1 -1.1
v 1.8 4.1 -1.2
v 1.8 4.1 -2.6
v 1.8 4.1 -2.7
v 1.9 2 -2.7
v 1.9 2 -2.9
v 1.9 2.1 -2.7
v 1.9 2.1 -2.8
v 1.9 2.1 -2.9
v 1.9 2.2 -2.7
v 1.9 2.2 -2.8
v 1.9 3.7 -0.9
v 1.9 3.7 -1
v 1.9 3.8 -0.9
v 1.9 3.8 -1
v 1.9 3.9 -0.9
v 1.9 3.9 -1
v 1.9 4 -1
v 1.9 4 -1.1
v 1.9 4.1 -1
v 1.9 4.1 -1.1
v 2.1 2 -2.7
v 2.1 2 -2.9
v 2.1 2.1 -2.7
v 2.1 2.1 -2.8
v 2.1 2.1 -2.9
v 2.1 2.2 -2.7
v 2.1 2.2 -2.8
v 2.1 3.7 -0.9
v 2.1 3.7 -1
v 2.1 3.8 -0.9
v 2.1 3.8 -1
v 2.1 3.9 -0.9
v 2.1 3.9 -1
v 2.1 4 -1
v 2.1 4 -1.1
v 2.1 4.1 -1
v 2.1 4.1 -1.1
v 2.2 2 -1.1
v 2.2 2 -1.2
v 2.2 2 -2.6
v 2.2 2 -2.7
v 2.2 2.1 -1.1
v 2.2 2.1 -1.2
v 2.2 2.1 -2.6
v 2.2 2.1 -2.7
v 2.2 3.7 -1
v 2.2 3.7 -1.1
v 2.2 3.8 -1
v 2.2 3.8 -1.1
v 2.2 3.9 -1
v 2.2 3.9 -1.1
v 2.2 3.9 -1.2
v 2.2 3.9 -2.6
v 2.2 3.9 -2.7
v 2.2 4 -1
v 2.2 4 -1.1
v 2.2 4 -1.2
v 2.2 4 -2.6
v 2.2 4 -2.7
v 2.2 4.1 -1.1
v 2.2 4.1 -1.2
v 2.2 4.1 -2.6
v 2.2 4.1 -2.7
v 2.4 2 -1.2
v 2.4 2 -1.3
v 2.4 2 -2.5
v 2.4 2 -2.6
v 2.4 2.1 -1.2
v 2.4 2.1 -1.3
v 2.4 2.1 -2.5
v 2.4 2.1 -2.6
v 2.4 3.9 -1.2
v 2.4 3.9 -1.3
v 2.4 3.9 -2.5
v 2.4 3.9 -2.6
v 2.4 4 -1.2
v 2.4 4 -1.3
v 2.4 4 -2.5
v 2.4 4 -2.6
v 2.4 4.1 -1.2
v 2.4 4.1 -1.3
v 2.4 4.1 -2.5
v 2.4 4.1 -2.6
v 2.6 2 -1.3
v 2.6 2 -1.4
v 2.6 2 -2.4
v 2.6 2 -2.5
v 2.6 2.1 -1.3
v 2.6 2.1 -1.4
v 2.6 2.1 -2.4
v 2.6 2.1 -2.5
v 2.6 3.9 -1.3
v 2.6 3.9 -1.4
v 2.6 3.9 -2.4
v 2.6 3.9 -2.5
v 2.6 4 -1.3
v 2.6 4 -1.4
v 2.6 4 -2.4
v 2.6 4 -2.5
v 2.6 4.1 -1.3
v 2.6 4.1 -1.4
v 2.6 4.1 -2.4
v 2.6 4.1 -2.5
v 2.7 2 -1.4
v 2.7 2 -1.6
v 2.7 2 -2.2
v 2.7 2 -2.4
v 2.7 2.1 -1.4
v 2.7 2.1 -1.6
v 2.7 2.1 -2.2
v 2.7 2.1 -2.4
v 2.7 3.9 -1.4
v 2.7 3.9 -1.6
v 2.7 3.9 -2.2
v 2.7 3.9 -2.4
v 2.7 4 -1.4
v 2.7 4 -1.6
v 2.7 4 -2.2
v 2.7 4 -2.4
v 2.7 4.1 -1.4
v 2.7 4.1 -1.6
v 2.7 4.1 -2.2
v 2.7 4.1 -2.4
v 2.8 2 -1.6
v 2.8 2 -2.2
v 2.8 2.1 -1.6
v 2.8 2.1 -2.2
v 2.8 3.9 -1.6
v 2.8 3.9 -2.2
v 2.8 4 -1.6
v 2.8 4 -2.2
v 2.8 4.1 -1.6
v 2.8 4.1 -2.2
v 1.9 3.7 -0.9
v 1.9 3.8 -0.9
v 1.9 3.9 -0.9
v 2.1 3.7 -0.9
v 2.1 3.8 -0.9
v 2.1 3.9 -0.9
v 1.8 3.7 -1
v 1.8 3.8 -1
v 1.8 3.9 -1
v 1.8 4 -1
v 1.9 3.7 -1
v 1.9 3.8 -1
v 1.9 3.9 -1
v 1.9 4 -1
v 1.9 4.1 -1
v 2.1 3.7 -1
v 2.1 3.8 -1
v 2.1 3.9 -1
v 2.1 4 -1
v 2.1 4.1 -1
v 2.2 3.7 -1
v 2.2 3.8 -1
v 2.2 3.9 -1
v 2.2 4 -1
v 1.8 2 -1.1
v 1.8 2.1 -1.1
v 1.8 3.7 -1.1
v 1.8 4 -1.1
v 1.8 4.1 -1.1
v 1.9 3.7 -1.1
v 1.9 4 -1.1
v 1.9 4.1 -1.1
v 2.1 3.7 -1.1
v 2.1 4 -1.1
v 2.1 4.1 -1.1
v 2.2 2 -1.1
v 2.2 2.1 -1.1
v 2.2 3.7 -1.1
v 2.2 4 -1.1
v 2.2 4.1 -1.1
v 1.6 2 -1.2
v 1.6 2.1 -1.2
v 1.6 3.9 -1.2
v 1.6 4 -1.2
v 1.6 4.1 -1.2
v 1.8 2 -1.2
v 1.8 2.1 -1.2
v 1.8 3.9 -1.2
v 1.8 4 -1.2
v 1.8 4.1 -1.2
v 2.2 2 -1.2
v 2.2 2.1 -1.2
v 2.2 3.9 -1.2
v 2.2 4 -1.2
v 2.2 4.1 -1.2
v 2.4 2 -1.2
v 2.4 2.1 -1.2
v 2.4 3.9 -1.2
v 2.4 4 -1.2
v 2.4 4.1 -1.2
v 1.4 2 -1.3
v 1.4 2.1 -1.3
v 1.4 3.9 -1.3
v 1.4 4 -1.3
v 1.4 4.1 -1.3
v 1.6 2 -1.3
v 1.6 2.1 -1.3
v 1.6 3.9 -1.3
v 1.6 4 -1.3
v 1.6 4.1 -1.3
v 2.4 2 -1.3
v 2.4 2.1 -1.3
v 2.4 3.9 -1.3
v 2.4 4 -1.3
v 2.4 4.1 -1.3
v 2.6 2 -1.3
v 2.6 2.1 -1.3
v 2.6 3.9 -1.3
v 2.6 4 -1.3
v 2.6 4.1 -1.3
v 1.3 2 -1.4
v 1.3 2.1 -1.4
v 1.3 3.9 -1.4
v 1.3 4 -1.4
v 1.3 4.1 -1.4
v 1.4 2 -1.4
v 1.4 2.1 -1.4
v 1.4 3.9 -1.4
v 1.4 4 -1.4
v 1.4 4.1 -1.4
v 2.6 2 -1.4
v 2.6 2.1 -1.4
v 2.6 3.9 -1.4
v 2.6 4 -1.4
v 2.6 4.1 -1.4
v 2.7 2 -1.4
v 2.7 2.1 -1.4
v 2.7 3.9 -1.4
v 2.7 4 -1.4
v 2.7 4.1 -1.4
v 1.2 2 -1.6
v 1.2 2.1 -1.6
v 1.2 3.9 -1.6
v 1.2 4 -1.6
v 1.2 4.1 -1.6
v 1.3 2 -1.6
v 1.3 2.1 -1.6
v 1.3 3.9 -1.6
v 1.3 4 -1.6
v 1.3 4.1 -1.6
v 2.7 2 -1.6
v 2.7 2.1 -1.6
v 2.7 3.9 -1.6
v 2.7 4 -1.6
v 2.7 4.1 -1.6
v 2.8 2 -1.6
v 2.8 2.1 -1.6
v 2.8 3.9 -1.6
v 2.8 4 -1.6
v 2.8 4.1 -1.6
v 1.2 2 -2.2
v 1.2 2.1 -2.2
v 1.2 3.9 -2.2
v 1.2 4 -2.2
v 1.2 4.1 -2.2
v 1.3 2 -2.2
v 1.3 2.1 -2.2
v 1.3 3.9 -2.2
v 1.3 4 -2.2
v 1.3 4.1 -2.2
v 2.7 2 -2.2
v 2.7 2.1 -2.2
v 2.7 3.9 -2.2
v 2.7 4 -2.2
v 2.7 4.1 -2.2
v 2.8 2 -2.2
v 2.8 2.1 -2.2
v 2.8 3.9 -2.2
v 2.8 4 -2.2
v 2.8 4.1 -2.2
v 1.3 2 -2.4
v 1.3 2.1 -2.4
v 1.3 3.9 -2.4
v 1.3 4 -2.4
v 1.3 4.1 -2.4
v 1.4 2 -2.4
v 1.4 2.1 -2.4
v 1.4 3.9 -2.4
v 1.4 4 -2.4
v 1.4 4.1 -2.4
v 2.6 2 -2.4
v 2.6 2.1 -2.4
v 2.6 3.9 -2.4
v 2.6 4 -2.4
v 2.6 4.1 -2.4
v 2.7 2 -2.4
v 2.7 2.1 -2.4
v 2.7 3.9 -2.4
v 2.7 4 -2.4
v 2.7 4.1 -2.4
v 1.4 2 -2.5
v 1.4 2.1 -2.5
v 1.4 3.9 -2.5
v 1.4 4 -2.5
v 1.4 4.1 -2.5
v 1.6 2 -2.5
v 1.6 2.1 -2.5
v 1.6 3.9 -2.5
v 1.6 4 -2.5
v 1.6 4.1 -2.5
v 2.4 2 -2.5
v 2.4 2.1 -2.5
v 2.4 3.9 -2.5
v 2.4 4 -2.5
v 2.4 4.1 -2.5
v 2.6 2 -2.5
v 2.6 2.1 -2.5
v 2.6 3.9 -2.5
v 2.6 4 -2.5
v 2.6 4.1 -2.5
v 1.6 2 -2.6
v 1.6 2.1 -2.6
v 1.6 3.9 -2.6
v 1.6 4 -2.6
v 1.6 4.1 -2.6
v 1.8 2 -2.6
v 1.8 2.1 -2.6
v 1.8 3.9 -2.6
v 1.8 4 -2.6
v 1.8 4.1 -2.6
v 2.2 2 -2.6
v 2.2 2.1 -2.6
v 2.2 3.9 -2.6
v 2.2 4 -2.6
v 2.2 4.1 -2.6
v 2.4 2 -2.6
v 2.4 2.1 -2.6
v 2.4 3.9 -2.6
v 2.4 4 -2.6
v 2.4 4.1 -2.6
v 1.8 2 -2.7
v 1.8 2.1 -2.7
v 1.8 3.9 -2.7
v 1.8 4 -2.7
v 1.8 4.1 -2.7
v 1.9 2 -2.7
v 1.9 2.1 -2.7
v 1.9 2.2 -2.7
v 1.9 3.6 -2.7
v 1.9 3.7 -2.7
v 2.1 2 -2.7
v 2.1 2.1 -2.7
v 2.1 2.2 -2.7
v 2.1 3.6 -2.7
v 2.1 3.7 -2.7
v 2.2 2 -2.7
v 2.2 2.1 -2.7
v 2.2 3.9 -2.7
v 2.2 4 -2.7
v 2.2 4.1 -2.7
v 1.9 2.1 -2.8
v 1.9 2.2 -2.8
v 2.1 2.1 -2.8
v 2.1 2.2 -2.8
v 1.9 2 -2.9
v 1.9 2.1 -2.9
v 2.1 2 -2.9
v 2.1 2.1 -2.9
v 1.8 2 -1.1
v 2.2 2 -1.1
v 1.6 2 -1.2
v 1.8 2 -1.2
v 2.2 2 -1.2
v 2.4 2 -1.2
v 1.4 2 -1.3
v 1.6 2 -1.3
v 2.4 2 -1.3
v 2.6 2 -1.3
v 1.3 2 -1.4
v 1.4 2 -1.4
v 2.6 2 -1.4
v 2.7 2 -1.4
v 1.2 2 -1.6
v 1.3 2 -1.6
v 2.7 2 -1.6
v 2.8 2 -1.6
v 1.2 2 -2.2
v 1.3 2 -2.2
v 2.7 2 -2.2
v 2.8 2 -2.2
v 1.3 2 -2.4
v 1.4 2 -2.4
v 2.6 2 -2.4
v 2.7 2 -2.4
v 1.4 2 -2.5
v 1.6 2 -2.5
v 2.4 2 -2.5
v 2.6 2 -2.5
v 1.6 2 -2.6
v 1.8 2 -2.6
v 2.2 2 -2.6
v 2.4 2 -2.6
v 1.8 2 -2.7
v 1.9 2 -2.7
v 2.1 2 -2.7
v 2.2 2 -2.7
v 1.9 2 -2.9
v 2.1 2 -2.9
v 1.9 3.7 -0.9
v 2.1 3.7 -0.9
v 1.8 3.7 -1
v 1.9 3.7 -1
v 2.1 3.7 -1
v 2.2 3.7 -1
v 1.8 3.7 -1.1
v 1.9 3.7 -1.1
v 2.1 3.7 -1.1
v 2.2 3.7 -1.1
v 1.9 2.1 -2.8
v 2.1 2.1 -2.8
v 1.9 2.1 -2.9
v 2.1 2.1 -2.9
v 1.9 2.2 -2.7
v 2.1 2.2 -2.7
v 1.9 2.2 -2.8
v 2.1 2.2 -2.8
v 1.9 3.9 -0.9
v 2.1 3.9 -0.9
v 1.9 3.9 -1
v 2.1 3.9 -1
v 1.8 4 -1
v 1.9 4 -1
v 2.1 4 -1
v 2.2 4 -1
v 1.8 4 -1.1
v 1.9 4 -1.1
v 2.1 4 -1.1
v 2.2 4 -1.1
v 1.9 4.1 -1
v 2.1 4.1 -1
v 1.8 4.1 -1.1
v 1.9 4.1 -1.1
v 2.1 4.1 -1.1
v 2.2 4.1 -1.1
v 1.6 4.1 -1.2
v 1.8 4.1 -1.2
v 2.2 4.1 -1.2
v 2.4 4.1 -1.2
v 1.4 4.1 -1.3
v 1.6 4.1 -1.3
v 2.4 4.1 -1.3
v 2.6 4.1 -1.3
v 1.3 4.1 -1.4
v 1.4 4.1 -1.4
v 2.6 4.1 -1.4
v 2.7 4.1 -1.4
v 1.2 4.1 -1.6
v 1.3 4.1 -1.6
v 2.7 4.1 -1.6
v 2.8 4.1 -1.6
v 1.2 4.1 -2.2
v 1.3 4.1 -2.2
v 2.7 4.1 -2.2
v 2.8 4.1 -2.2
v 1.3 4.1 -2.4
v 1.4 4.1 -2.4
v 2.6 4.1 -2.4
v 2.7 4.1 -2.4
v 1.4 4.1 -2.5
v 1.6 4.1 -2.5
v 2.4 4.1 -2.5
v 2.6 4.1 -2.5
v 1.6 4.1 -2.6
v 1.8 4.1 -2.6
v 2.2 4.1 -2.6
v 2.4 4.1 -2.6
v 1.8 4.1 -2.7
v 2.2 4.1 -2.7

# faces
f 3/2/1 2/2/1 1/2/1
f 4/2/1 2/2/1 3/2/1
f 5/4/1 4/4/1 3/4/1
f 6/4/1 4/4/1 5/4/1
f 7/1/1 6/1/1 5/1/1
f 8/1/1 6/1/1 7/1/1
f 9/3/1 8/3/1 7/3/1
f 10/3/1 8/3/1 9/3/1
f 15/2/1 12/2/1 11/2/1
f 16/2/1 12/2/1 15/2/1
f 17/2/1 14/2/1 13/2/1
f 18/2/1 14/2/1 17/2/1
f 19/4/1 16/4/1 15/4/1
f 20/4/1 16/4/1 19/4/1
f 21/4/1 18/4/1 17/4/1
f 22/4/1 18/4/1 21/4/1
f 23/1/1 20/1/1 19/1/1
f 24/1/1 20/1/1 23/1/1
f 25/1/1 22/1/1 21/1/1
f 26/1/1 22/1/1 25/1/1
f 27/3/1 24/3/1 23/3/1
f 28/3/1 24/3/1 27/3/1
f 29/3/1 26/3/1 25/3/1
f 30/3/1 26/3/1 29/3/1
f 35/2/1 32/2/1 31/2/1
f 36/2/1 32/2/1 35/2/1
f 37/2/1 34/2/1 33/2/1
f 38/2/1 34/2/1 37/2/1
f 39/4/1 36/4/1 35/4/1
f 40/4/1 36/4/1 39/4/1
f 41/4/1 38/4/1 37/4/1
f 42/4/1 38/4/1 41/4/1
f 43/1/1 40/1/1 39/1/1
f 44/1/1 40/1/1 43/1/1
f 45/1/1 42/1/1 41/1/1
f 46/1/1 42/1/1 45/1/1
f 47/3/1 44/3/1 43/3/1
f 48/3/1 44/3/1 47/3/1
f 49/3/1 46/3/1 45/3/1
f 50/3/1 46/3/1 49/3/1
f 55/2/1 52/2/1 51/2/1
f 56/2/1 52/2/1 55/2/1
f 57/2/1 54/2/1 53/2/1
f 58/2/1 54/2/1 57/2/1
f 59/4/1 56/4/1 55/4/1
f 60/4/1 56/4/1 59/4/1
f 61/4/1 58/4/1 57/4/1
f 62/4/1 58/4/1 61/4/1
f 63/1/1 60/1/1 59/1/1
f 64/1/1 60/1/1 63/1/1
f 65/1/1 62/1/1 61/1/1
f 66/1/1 62/1/1 65/1/1
f 67/3/1 64/3/1 63/3/1
f 68/3/1 64/3/1 67/3/1
f 69/3/1 66/3/1 65/3/1
f 70/3/1 66/3/1 69/3/1
f 75/2/1 72/2/1 71/2/1
f 76/2/1 72/2/1 75/2/1
f 77/2/1 74/2/1 73/2/1
f 78/2/1 74/2/1 77/2/1
f 80/4/1 76/4/1 75/4/1
f 81/6/1 80/6/1 79/6/1
f 82/4/1 76/4/1 80/4/1
f 82/6/1 80/6/1 81/6/1
f 83/5/1 82/5/1 81/5/1
f 84/4/1 76/4/1 82/4/1
f 84/5/1 82/5/1 83/5/1
f 85/4/1 76/4/1 84/4/1
f 86/4/1 78/4/1 77/4/1
f 87/4/1 78/4/1 86/4/1
f 88/6/1 84/6/1 83/6/1
f 89/1/1 85/1/1 84/1/1
f 89/6/1 84/6/1 88/6/1
f 90/1/1 85/1/1 89/1/1
f 91/1/1 87/1/1 86/1/1
f 92/1/1 87/1/1 91/1/1
f 93/3/1 90/3/1 89/3/1
f 94/3/1 90/3/1 93/3/1
f 95/3/1 92/3/1 91/3/1
f 96/3/1 92/3/1 95/3/1
f 99/6/1 98/6/1 97/6/1
f 100/6/1 98/6/1 99/6/1
f 101/6/1 98/6/1 100/6/1
f 102/6/1 100/6/1 99/6/1
f 103/6/1 100/6/1 102/6/1
f 106/6/1 105/6/1 104/6/1
f 107/6/1 105/6/1 106/6/1
f 108/5/1 107/5/1 106/5/1
f 109/5/1 107/5/1 108/5/1
f 112/6/1 111/6/1 110/6/1
f 113/6/1 111/6/1 112/6/1
f 114/6/2 115/6/2 116/6/2
f 116/6/2 115/6/2 117/6/2
f 117/6/2 115/6/2 118/6/2
f 116/6/2 117/6/2 119/6/2
f 119/6/2 117/6/2 120/6/2
f 121/6/2 122/6/2 123/6/2
f 123/6/2 122/6/2 124/6/2
f 123/5/2 124/5/2 125/5/2
f 125/5/2 124/5/2 126/5/2
f 127/6/2 128/6/2 129/6/2
f 129/6/2 128/6/2 130/6/2
f 131/2/2 132/2/2 135/2/2
f 135/2/2 132/2/2 136/2/2
f 133/2/2 134/2/2 137/2/2
f 137/2/2 134/2/2 138/2/2
f 135/4/2 136/4/2 140/4/2
f 139/6/2 140/6/2 141/6/2
f 140/4/2 136/4/2 142/4/2
f 141/6/2 140/6/2 142/6/2
f 141/5/2 142/5/2 143/5/2
f 142/4/2 136/4/2 144/4/2
f 143/5/2 142/5/2 144/5/2
f 144/4/2 136/4/2 145/4/2
f 137/4/2 138/4/2 146/4/2
f 146/4/2 138/4/2 147/4/2
f 143/6/2 144/6/2 148/6/2
f 144/1/2 145/1/2 149/1/2
f 148/6/2 144/6/2 149/6/2
f 149/1/2 145/1/2 150/1/2
f 146/1/2 147/1/2 151/1/2
f 151/1/2 147/1/2 152/1/2
f 149/3/2 150/3/2 153/3/2
f 153/3/2 150/3/2 154/3/2
f 151/3/2 152/3/2 155/3/2
f 155/3/2 152/3/2 156/3/2
f 157/2/2 158/2/2 161/2/2
f 161/2/2 158/2/2 162/2/2
f 159/2/2 160/2/2 163/2/2
f 163/2/2 160/2/2 164/2/2
f 161/4/2 162/4/2 165/4/2
f 165/4/2 162/4/2 166/4/2
f 163/4/2 164/4/2 167/4/2
f 167/4/2 164/4/2 168/4/2
f 165/1/2 166/1/2 169/1/2
f 169/1/2 166/1/2 170/1/2
f 167/1/2 168/1/2 171/1/2
f 171/1/2 168/1/2 172/1/2
f 169/3/2 170/3/2 173/3/2
f 173/3/2 170/3/2 174/3/2
f 171/3/2 172/3/2 175/3/2
f 175/3/2 172/3/2 176/3/2
f 177/2/2 178/2/2 181/2/2
f 181/2/2 178/2/2 182/2/2
f 179/2/2 180/2/2 183/2/2
f 183/2/2 180/2/2 184/2/2
f 181/4/2 182/4/2 185/4/2
f 185/4/2 182/4/2 186/4/2
f 183/4/2 184/4/2 187/4/2
f 187/4/2 184/4/2 188/4/2
f 185/1/2 186/1/2 189/1/2
f 189/1/2 186/1/2 190/1/2
f 187/1/2 188/1/2 191/1/2
f 191/1/2 188/1/2 192/1/2
f 189/3/2 190/3/2 193/3/2
f 193/3/2 190/3/2 194/3/2
f 191/3/2 192/3/2 195/3/2
f 195/3/2 192/3/2 196/3/2
f 197/2/2 198/2/2 201/2/2
f 201/2/2 198/2/2 202/2/2
f 199/2/2 200/2/2 203/2/2
f 203/2/2 200/2/2 204/2/2
f 201/4/2 202/4/2 205/4/2
f 205/4/2 202/4/2 206/4/2
f 203/4/2 204/4/2 207/4/2
f 207/4/2 204/4/2 208/4/2
f 205/1/2 206/1/2 209/1/2
f 209/1/2 206/1/2 210/1/2
f 207/1/2 208/1/2 211/1/2
f 211/1/2 208/1/2 212/1/2
f 209/3/2 210/3/2 213/3/2
f 213/3/2 210/3/2 214/3/2
f 211/3/2 212/3/2 215/3/2
f 215/3/2 212/3/2 216/3/2
f 217/2/2 218/2/2 219/2/2
f 219/2/2 218/2/2 220/2/2
f 219/4/2 220/4/2 221/4/2
f 221/4/2 220/4/2 222/4/2
f 221/1/2 222/1/2 223/1/2
f 223/1/2 222/1/2 224/1/2
f 223/3/2 224/3/2 225/3/2
f 225/3/2 224/3/2 226/3/2
f 230/6/3 228/6/3 227/6/3
f 231/5/3 229/5/3 228/5/3
f 231/6/3 228/6/3 230/6/3
f 232/5/3 229/5/3 231/5/3
f 237/6/3 234/6/3 233/6/3
f 238/5/3 235/5/3 234/5/3
f 238/6/3 234/6/3 237/6/3
f 239/6/3 236/6/3 235/6/3
f 239/5/3 235/5/3 238/5/3
f 240/6/3 236/6/3 239/6/3
f 244/5/3 240/5/3 239/5/3
f 245/6/3 241/6/3 240/6/3
f 245/5/3 240/5/3 244/5/3
f 246/6/3 241/6/3 245/6/3
f 247/6/3 243/6/3 242/6/3
f 248/5/3 244/5/3 243/5/3
f 248/6/3 243/6/3 247/6/3
f 249/6/3 245/6/3 244/6/3
f 249/5/3 244/5/3 248/5/3
f 250/6/3 245/6/3 249/6/3
f 256/4/3 253/4/3 252/4/3
f 257/3/3 255/3/3 254/3/3
f 258/3/3 255/3/3 257/3/3
f 259/4/3 256/4/3 252/4/3
f 262/2/3 252/2/3 251/2/3
f 263/4/3 259/4/3 252/4/3
f 263/2/3 252/2/3 262/2/3
f 264/4/3 259/4/3 263/4/3
f 265/3/3 261/3/3 260/3/3
f 266/3/3 261/3/3 265/3/3
f 272/2/3 268/2/3 267/2/3
f 273/4/3 269/4/3 268/4/3
f 273/2/3 268/2/3 272/2/3
f 274/1/3 270/1/3 269/1/3
f 274/4/3 269/4/3 273/4/3
f 275/3/3 271/3/3 270/3/3
f 275/1/3 270/1/3 274/1/3
f 276/3/3 271/3/3 275/3/3
f 282/2/3 278/2/3 277/2/3
f 283/4/3 279/4/3 278/4/3
f 283/2/3 278/2/3 282/2/3
f 284/1/3 280/1/3 279/1/3
f 284/4/3 279/4/3 283/4/3
f 285/3/3 281/3/3 280/3/3
f 285/1/3 280/1/3 284/1/3
f 286/3/3 281/3/3 285/3/3
f 292/2/3 288/2/3 287/2/3
f 293/4/3 289/4/3 288/4/3
f 293/2/3 288/2/3 292/2/3
f 294/1/3 290/1/3 289/1/3
f 294/4/3 289/4/3 293/4/3
f 295/3/3 291/3/3 290/3/3
f 295/1/3 290/1/3 294/1/3
f 296/3/3 291/3/3 295/3/3
f 302/2/3 298/2/3 297/2/3
f 303/4/3 299/4/3 298/4/3
f 303/2/3 298/2/3 302/2/3
f 304/1/3 300/1/3 299/1/3
f 304/4/3 299/4/3 303/4/3
f 305/3/3 301/3/3 300/3/3
f 305/1/3 300/1/3 304/1/3
f 306/3/3 301/3/3 305/3/3
f 312/2/3 308/2/3 307/2/3
f 313/4/3 309/4/3 308/4/3
f 313/2/3 308/2/3 312/2/3
f 314/1/3 310/1/3 309/1/3
f 314/4/3 309/4/3 313/4/3
f 315/3/3 311/3/3 310/3/3
f 315/1/3 310/1/3 314/1/3
f 316/3/3 311/3/3 315/3/3
f 322/2/3 318/2/3 317/2/3
f 323/4/3 319/4/3 318/4/3
f 323/2/3 318/2/3 322/2/3
f 324/1/3 320/1/3 319/1/3
f 324/4/3 319/4/3 323/4/3
f 325/3/3 321/3/3 320/3/3
f 325/1/3 320/1/3 324/1/3
f 326/3/3 321/3/3 325/3/3
f 332/2/3 328/2/3 327/2/3
f 333/4/3 329/4/3 328/4/3
f 333/2/3 328/2/3 332/2/3
f 334/1/3 330/1/3 329/1/3
f 334/4/3 329/4/3 333/4/3
f 335/3/3 331/3/3 330/3/3
f 335/1/3 330/1/3 334/1/3
f 336/3/3 331/3/3 335/3/3
f 342/2/3 338/2/3 337/2/3
f 343/4/3 339/4/3 338/4/3
f 343/2/3 338/2/3 342/2/3
f 344/1/3 340/1/3 339/1/3
f 344/4/3 339/4/3 343/4/3
f 345/3/3 341/3/3 340/3/3
f 345/1/3 340/1/3 344/1/3
f 346/3/3 341/3/3 345/3/3
f 347/2/4 348/2/4 352/2/4
f 348/4/4 349/4/4 353/4/4
f 352/2/4 348/2/4 353/2/4
f 349/1/4 350/1/4 354/1/4
f 353/4/4 349/4/4 354/4/4
f 350/3/4 351/3/4 355/3/4
f 354/1/4 350/1/4 355/1/4
f 355/3/4 351/3/4 356/3/4
f 357/2/4 358/2/4 362/2/4
f 358/4/4 359/4/4 363/4/4
f 362/2/4 358/2/4 363/2/4
f 359/1/4 360/1/4 364/1/4
f 363/4/4 359/4/4 364/4/4
f 360/3/4 361/3/4 365/3/4
f 364/1/4 360/1/4 365/1/4
f 365/3/4 361/3/4 366/3/4
f 367/2/4 368/2/4 372/2/4
f 368/4/4 369/4/4 373/4/4
f 372/2/4 368/2/4 373/2/4
f 369/1/4 370/1/4 374/1/4
f 373/4/4 369/4/4 374/4/4
f 370/3/4 371/3/4 375/3/4
f 374/1/4 370/1/4 375/1/4
f 375/3/4 371/3/4 376/3/4
f 377/2/4 378/2/4 382/2/4
f 378/4/4 379/4/4 383/4/4
f 382/2/4 378/2/4 383/2/4
f 379/1/4 380/1/4 384/1/4
f 383/4/4 379/4/4 384/4/4
f 380/3/4 381/3/4 385/3/4
f 384/1/4 380/1/4 385/1/4
f 385/3/4 381/3/4 386/3/4
f 387/2/4 388/2/4 392/2/4
f 388/4/4 389/4/4 393/4/4
f 392/2/4 388/2/4 393/2/4
f 389/1/4 390/1/4 394/1/4
f 393/4/4 389/4/4 394/4/4
f 390/3/4 391/3/4 395/3/4
f 394/1/4 390/1/4 395/1/4
f 395/3/4 391/3/4 396/3/4
f 397/2/4 398/2/4 402/2/4
f 398/4/4 399/4/4 403/4/4
f 402/2/4 398/2/4 403/2/4
f 399/1/4 400/1/4 404/1/4
f 403/4/4 399/4/4 404/4/4
f 400/3/4 401/3/4 405/3/4
f 404/1/4 400/1/4 405/1/4
f 405/3/4 401/3/4 406/3/4
f 407/2/4 408/2/4 412/2/4
f 408/4/4 409/4/4 413/4/4
f 412/2/4 408/2/4 413/2/4
f 409/1/4 410/1/4 414/1/4
f 413/4/4 409/4/4 414/4/4
f 410/3/4 411/3/4 415/3/4
f 414/1/4 410/1/4 415/1/4
f 415/3/4 411/3/4 416/3/4
f 417/2/4 418/2/4 422/2/4
f 418/4/4 419/4/4 423/4/4
f 422/2/4 418/2/4 423/2/4
f 419/1/4 420/1/4 424/1/4
f 423/4/4 419/4/4 424/4/4
f 420/3/4 421/3/4 425/3/4
f 424/1/4 420/1/4 425/1/4
f 425/3/4 421/3/4 426/3/4
f 427/2/4 428/2/4 432/2/4
f 428/4/4 429/4/4 433/4/4
f 432/2/4 428/2/4 433/2/4
f 433/4/4 429/4/4 434/4/4
f 434/4/4 429/4/4 435/4/4
f 435/4/4 429/4/4 436/4/4
f 434/4/4 435/4/4 439/4/4
f 435/6/4 436/6/4 440/6/4
f 439/4/4 435/4/4 440/4/4
f 436/4/4 429/4/4 441/4/4
f 440/6/4 436/6/4 441/6/4
f 437/2/4 438/2/4 442/2/4
f 439/4/4 440/4/4 443/4/4
f 442/2/4 438/2/4 443/2/4
f 438/4/4 439/4/4 443/4/4
f 440/4/4 441/4/4 443/4/4
f 429/1/4 430/1/4 444/1/4
f 443/4/4 441/4/4 444/4/4
f 441/4/4 429/4/4 444/4/4
f 430/3/4 431/3/4 445/3/4
f 444/1/4 430/1/4 445/1/4
f 445/3/4 431/3/4 446/3/4
f 447/6/4 448/6/4 449/6/4
f 449/6/4 448/6/4 450/6/4
f 451/6/4 452/6/4 453/6/4
f 453/6/4 452/6/4 454/6/4
f 458/2/5 456/2/5 455/2/5
f 459/2/5 456/2/5 458/2/5
f 462/2/5 458/2/5 457/2/5
f 462/2/5 460/2/5 459/2/5
f 462/2/5 459/2/5 458/2/5
f 463/2/5 460/2/5 462/2/5
f 466/2/5 462/2/5 461/2/5
f 466/2/5 464/2/5 463/2/5
f 466/2/5 463/2/5 462/2/5
f 467/2/5 464/2/5 466/2/5
f 470/2/5 466/2/5 465/2/5
f 470/2/5 468/2/5 467/2/5
f 470/2/5 467/2/5 466/2/5
f 471/2/5 468/2/5 470/2/5
f 473/2/5 470/2/5 469/2/5
f 473/2/5 472/2/5 471/2/5
f 473/2/5 471/2/5 470/2/5
f 474/2/5 472/2/5 473/2/5
f 475/2/5 472/2/5 474/2/5
f 476/2/5 472/2/5 475/2/5
f 477/2/5 475/2/5 474/2/5
f 478/2/5 475/2/5 477/2/5
f 479/2/5 475/2/5 478/2/5
f 480/2/5 475/2/5 479/2/5
f 481/2/5 479/2/5 478/2/5
f 482/2/5 479/2/5 481/2/5
f 483/2/5 479/2/5 482/2/5
f 484/2/5 479/2/5 483/2/5
f 485/2/5 483/2/5 482/2/5
f 486/2/5 483/2/5 485/2/5
f 487/2/5 483/2/5 486/2/5
f 488/2/5 483/2/5 487/2/5
f 489/2/5 487/2/5 486/2/5
f 490/2/5 487/2/5 489/2/5
f 491/2/5 487/2/5 490/2/5
f 492/2/5 487/2/5 491/2/5
f 493/6/5 491/6/5 490/6/5
f 494/6/5 491/6/5 493/6/5
f 498/6/5 496/6/5 495/6/5
f 499/6/5 496/6/5 498/6/5
f 501/6/5 498/6/5 497/6/5
f 502/4/5 499/4/5 498/4/5
f 502/6/5 498/6/5 501/6/5
f 503/6/5 500/6/5 499/6/5
f 503/4/5 499/4/5 502/4/5
f 504/6/5 500/6/5 503/6/5
f 505/6/6 506/6/6 507/6/6
f 507/6/6 506/6/6 508/6/6
f 509/6/6 510/6/6 511/6/6
f 511/6/6 510/6/6 512/6/6
f 513/5/6 514/5/6 515/5/6
f 515/5/6 514/5/6 516/5/6
f 517/6/6 518/6/6 521/6/6
f 521/6/6 518/6/6 522/6/6
f 519/6/6 520/6/6 523/6/6
f 523/6/6 520/6/6 524/6/6
f 525/6/6 526/6/6 528/6/6
f 528/6/6 526/6/6 529/6/6
f 527/3/6 528/3/6 532/3/6
f 529/3/6 530/3/6 532/3/6
f 528/3/6 529/3/6 532/3/6
f 532/3/6 530/3/6 533/3/6
f 531/3/6 532/3/6 536/3/6
f 533/3/6 534/3/6 536/3/6
f 532/3/6 533/3/6 536/3/6
f 536/3/6 534/3/6 537/3/6
f 535/3/6 536/3/6 540/3/6
f 537/3/6 538/3/6 540/3/6
f 536/3/6 537/3/6 540/3/6
f 540/3/6 538/3/6 541/3/6
f 539/3/6 540/3/6 544/3/6
f 541/3/6 542/3/6 544/3/6
f 540/3/6 541/3/6 544/3/6
f 544/3/6 542/3/6 545/3/6
f 543/3/6 544/3/6 547/3/6
f 545/3/6 546/3/6 547/3/6
f 544/3/6 545/3/6 547/3/6
f 547/3/6 546/3/6 548/3/6
f 548/3/6 546/3/6 549/3/6
f 549/3/6 546/3/6 550/3/6
f 548/3/6 549/3/6 551/3/6
f 551/3/6 549/3/6 552/3/6
f 552/3/6 549/3/6 553/3/6
f 553/3/6 549/3/6 554/3/6
f 552/3/6 553/3/6 555/3/6
f 555/3/6 553/3/6 556/3/6
f 556/3/6 553/3/6 557/3/6
f 557/3/6 553/3/6 558/3/6
f 556/3/6 557/3/6 559/3/6
f 559/3/6 557/3/6 560/3/6
f 560/3/6 557/3/6 561/3/6
f 561/3/6 557/3/6 562/3/6
f 560/3/6 561/3/6 563/3/6
f 563/3/6 561/3/6 564/3/6
